<svg id="canvas" width="799.883" height="158.316" viewBox="159.069 226.655 799.883 158.316" preserveAspectRatio="xMidYMid meet" class="h-full w-full max-w-4xl text-primary transition-opacity duration-300 opacity-100" xmlns="http://www.w3.org/2000/svg"><g id="canvas-strokes"><path d="M 203.53,229.89 C 203.11 230.27, 202.77 230.54, 202.43 232.00 C 202.10 233.46, 201.73 234.52, 201.84 237.19 C 201.94 239.87, 202.34 241.50, 202.98 245.36 C 203.62 249.22, 204.08 251.55, 205.03 256.51 C 205.98 261.47, 206.59 264.33, 207.73 270.15 C 208.87 275.97, 209.53 279.22, 210.74 285.60 C 211.96 291.98, 212.65 295.47, 213.81 302.05 C 214.97 308.63, 215.59 312.08, 216.55 318.49 C 217.50 324.90, 217.98 328.19, 218.58 334.09 C 219.19 340.00, 219.44 342.93, 219.58 348.03 C 219.71 353.14, 219.70 355.55, 219.26 359.62 C 218.82 363.70, 218.44 365.46, 217.37 368.41 C 216.30 371.36, 215.61 372.49, 213.93 374.37 C 212.26 376.26, 211.31 376.86, 209.01 377.84 C 206.71 378.82, 205.37 379.06, 202.43 379.26 C 199.50 379.47, 197.73 379.43, 194.35 378.87 C 190.97 378.31, 188.98 377.79, 185.53 376.46 C 182.07 375.12, 180.16 374.17, 177.07 372.18 C 173.98 370.19, 172.37 368.94, 170.08 366.51 C 167.78 364.09, 166.69 362.91, 165.61 360.06 C 164.52 357.22, 164.56 355.29, 164.66 352.30 C 164.76 349.31, 165.48 347.60, 166.10 345.12 C 166.73 342.63, 167.12 341.59, 167.79 339.86 C 168.46 338.14, 169.28 337.28, 169.46 336.49 C 169.63 335.71, 169.38 335.45, 168.66 335.93 C 167.94 336.41, 166.92 337.19, 165.85 338.88 C 164.79 340.57, 164.09 341.70, 163.34 344.37 C 162.58 347.05, 162.05 348.96, 162.07 352.27 C 162.09 355.58, 162.15 357.76, 163.42 360.92 C 164.69 364.08, 165.95 365.44, 168.43 368.07 C 170.92 370.70, 172.60 371.97, 175.85 374.08 C 179.10 376.19, 181.06 377.16, 184.68 378.61 C 188.29 380.05, 190.34 380.65, 193.92 381.30 C 197.51 381.95, 199.40 382.10, 202.62 381.87 C 205.84 381.64, 207.41 381.34, 210.03 380.15 C 212.65 378.95, 213.84 378.11, 215.71 375.90 C 217.57 373.69, 218.28 372.31, 219.34 369.09 C 220.40 365.87, 220.66 364.01, 221.00 359.79 C 221.35 355.57, 221.30 353.15, 221.08 347.98 C 220.87 342.81, 220.59 339.89, 219.93 333.95 C 219.28 328.01, 218.79 324.72, 217.82 318.30 C 216.85 311.87, 216.23 308.42, 215.08 301.83 C 213.93 295.24, 213.25 291.74, 212.09 285.35 C 210.92 278.96, 210.29 275.70, 209.25 269.87 C 208.21 264.04, 207.64 261.15, 206.88 256.19 C 206.13 251.22, 205.82 248.87, 205.47 245.04 C 205.12 241.21, 205.28 239.61, 205.15 237.04 C 205.02 234.47, 204.94 233.57, 204.81 232.18 C 204.68 230.78, 204.77 230.53, 204.51 230.07 C 204.26 229.62, 203.94 229.50, 203.53 229.89" style="stroke: black; fill: black;"/><path d="M 281.93,313.75 C 281.71 313.09, 281.18 312.42, 280.10 311.46 C 279.02 310.51, 278.26 309.86, 276.53 308.95 C 274.79 308.04, 273.60 307.43, 271.41 306.93 C 269.22 306.43, 268.07 306.24, 265.58 306.45 C 263.09 306.66, 261.66 306.80, 258.96 308.00 C 256.26 309.20, 254.75 310.08, 252.08 312.43 C 249.42 314.78, 247.93 316.30, 245.64 319.75 C 243.35 323.20, 242.09 325.38, 240.64 329.68 C 239.19 333.98, 238.54 336.64, 238.38 341.26 C 238.23 345.87, 238.46 348.54, 239.86 352.77 C 241.25 357.00, 242.45 359.17, 245.37 362.41 C 248.28 365.66, 250.35 367.12, 254.45 368.99 C 258.54 370.86, 261.14 371.43, 265.84 371.77 C 270.55 372.10, 273.28 371.78, 277.96 370.67 C 282.65 369.56, 285.20 368.57, 289.27 366.23 C 293.34 363.89, 295.37 362.28, 298.32 358.96 C 301.26 355.65, 302.51 353.58, 304.00 349.64 C 305.50 345.71, 305.85 343.40, 305.78 339.28 C 305.71 335.17, 305.15 332.85, 303.65 329.05 C 302.14 325.25, 300.84 323.34, 298.25 320.27 C 295.67 317.21, 293.85 315.82, 290.72 313.74 C 287.59 311.66, 285.71 310.82, 282.60 309.88 C 279.49 308.94, 277.58 309.03, 275.15 309.04 C 272.73 309.05, 271.40 309.56, 270.48 309.94 C 269.55 310.31, 269.62 310.64, 270.53 310.91 C 271.44 311.19, 272.75 311.03, 275.02 311.31 C 277.29 311.58, 278.97 311.45, 281.87 312.31 C 284.77 313.17, 286.55 313.74, 289.51 315.61 C 292.47 317.47, 294.21 318.79, 296.66 321.63 C 299.11 324.47, 300.34 326.26, 301.78 329.80 C 303.21 333.34, 303.74 335.49, 303.83 339.32 C 303.92 343.16, 303.62 345.29, 302.24 348.98 C 300.87 352.67, 299.73 354.62, 296.96 357.76 C 294.18 360.90, 292.27 362.45, 288.39 364.69 C 284.51 366.92, 282.04 367.89, 277.56 368.95 C 273.07 370.01, 270.44 370.30, 265.97 369.98 C 261.50 369.66, 259.05 369.10, 255.20 367.34 C 251.35 365.58, 249.44 364.23, 246.72 361.20 C 244.00 358.17, 242.90 356.17, 241.61 352.20 C 240.32 348.22, 240.09 345.70, 240.27 341.33 C 240.46 336.95, 241.09 334.40, 242.53 330.33 C 243.97 326.26, 245.23 324.19, 247.47 321.00 C 249.71 317.81, 251.20 316.44, 253.74 314.38 C 256.27 312.33, 257.72 311.73, 260.13 310.73 C 262.55 309.72, 263.71 309.49, 265.81 309.35 C 267.91 309.20, 268.79 309.50, 270.63 310.02 C 272.48 310.54, 273.45 311.20, 275.04 311.95 C 276.64 312.69, 277.38 313.17, 278.61 313.73 C 279.84 314.29, 280.53 314.74, 281.19 314.74 C 281.85 314.74, 282.15 314.40, 281.93 313.75" style="stroke: black; fill: black;"/><path d="M 325.29,341.30 C 325.76 341.74, 326.33 342.11, 327.82 342.37 C 329.31 342.63, 330.33 342.82, 332.74 342.60 C 335.15 342.38, 336.74 342.10, 339.86 341.28 C 342.97 340.45, 344.84 339.78, 348.31 338.47 C 351.79 337.17, 353.83 336.34, 357.23 334.75 C 360.64 333.16, 362.48 332.29, 365.33 330.53 C 368.18 328.78, 369.59 327.91, 371.48 325.99 C 373.38 324.08, 374.13 323.00, 374.81 320.96 C 375.48 318.92, 375.54 317.79, 374.86 315.79 C 374.17 313.79, 373.46 312.59, 371.38 310.97 C 369.30 309.35, 367.75 308.57, 364.46 307.70 C 361.18 306.83, 359.08 306.59, 354.96 306.62 C 350.85 306.65, 348.38 306.81, 343.88 307.84 C 339.38 308.86, 336.78 309.70, 332.48 311.74 C 328.17 313.78, 325.85 315.15, 322.37 318.04 C 318.88 320.93, 317.19 322.66, 315.04 326.19 C 312.90 329.73, 312.08 331.84, 311.64 335.72 C 311.20 339.60, 311.43 341.81, 312.86 345.59 C 314.28 349.37, 315.58 351.35, 318.77 354.62 C 321.96 357.90, 324.19 359.48, 328.80 361.97 C 333.41 364.45, 336.28 365.47, 341.84 367.04 C 347.40 368.60, 350.68 369.07, 356.61 369.81 C 362.55 370.54, 365.83 370.63, 371.52 370.70 C 377.21 370.78, 380.11 370.57, 385.07 370.20 C 390.03 369.84, 392.51 369.45, 396.31 368.88 C 400.11 368.32, 401.70 368.03, 404.08 367.39 C 406.47 366.76, 407.46 366.21, 408.25 365.72 C 409.04 365.22, 408.95 364.97, 408.04 364.93 C 407.12 364.89, 406.08 365.11, 403.68 365.51 C 401.27 365.92, 399.76 366.33, 396.01 366.95 C 392.26 367.56, 389.83 368.13, 384.94 368.58 C 380.04 369.03, 377.16 369.26, 371.53 369.22 C 365.91 369.17, 362.65 369.08, 356.79 368.35 C 350.94 367.62, 347.70 367.13, 342.26 365.56 C 336.82 363.99, 334.03 362.94, 329.60 360.50 C 325.17 358.06, 323.07 356.47, 320.09 353.35 C 317.10 350.24, 315.97 348.39, 314.67 344.91 C 313.37 341.43, 313.19 339.49, 313.58 335.94 C 313.98 332.39, 314.68 330.47, 316.67 327.18 C 318.66 323.89, 320.23 322.22, 323.55 319.47 C 326.87 316.72, 329.12 315.37, 333.27 313.43 C 337.42 311.50, 339.97 310.70, 344.31 309.79 C 348.64 308.89, 351.06 308.80, 354.94 308.91 C 358.82 309.02, 360.77 309.49, 363.73 310.35 C 366.68 311.21, 367.92 311.96, 369.73 313.21 C 371.54 314.46, 372.17 315.18, 372.78 316.58 C 373.38 317.98, 373.38 318.70, 372.76 320.22 C 372.14 321.73, 371.44 322.51, 369.68 324.14 C 367.93 325.78, 366.70 326.70, 364.00 328.38 C 361.31 330.06, 359.52 331.01, 356.21 332.54 C 352.89 334.07, 350.86 334.88, 347.44 336.02 C 344.03 337.16, 342.14 337.59, 339.12 338.24 C 336.11 338.90, 334.60 338.96, 332.35 339.29 C 330.10 339.61, 329.27 339.71, 327.89 339.89 C 326.51 340.07, 325.98 339.91, 325.46 340.19 C 324.95 340.48, 324.82 340.87, 325.29 341.30" style="stroke: black; fill: black;"/><path d="M 549.89,245.24 C 549.41 245.64, 549.07 245.96, 548.49 247.53 C 547.92 249.10, 547.46 250.05, 547.01 253.08 C 546.56 256.11, 546.60 258.08, 546.25 262.69 C 545.89 267.30, 545.68 270.16, 545.24 276.14 C 544.80 282.12, 544.52 285.74, 544.04 292.58 C 543.57 299.41, 543.24 303.31, 542.87 310.33 C 542.49 317.34, 542.29 321.13, 542.17 327.67 C 542.06 334.20, 542.03 337.44, 542.27 342.99 C 542.51 348.54, 542.69 351.06, 543.38 355.42 C 544.07 359.78, 544.50 361.64, 545.72 364.80 C 546.94 367.96, 547.65 369.19, 549.48 371.20 C 551.30 373.22, 552.35 373.91, 554.85 374.87 C 557.35 375.84, 558.80 376.04, 561.96 376.03 C 565.13 376.02, 566.92 375.59, 570.67 374.82 C 574.43 374.05, 576.57 373.38, 580.74 372.19 C 584.91 370.99, 587.27 370.20, 591.52 368.86 C 595.78 367.51, 598.04 366.73, 602.00 365.46 C 605.97 364.20, 607.92 363.56, 611.35 362.52 C 614.78 361.48, 616.39 361.11, 619.14 360.25 C 621.88 359.40, 623.16 358.93, 625.07 358.25 C 626.97 357.58, 627.57 357.33, 628.65 356.87 C 629.72 356.42, 629.96 356.27, 630.43 355.98 C 630.91 355.69, 630.90 355.59, 631.02 355.41 C 631.14 355.23, 630.96 355.08, 631.02 355.09 C 631.08 355.10, 631.11 355.08, 631.31 355.45 C 631.52 355.83, 631.93 356.87, 632.05 356.96 C 632.17 357.04, 632.12 356.57, 631.91 355.89 C 631.70 355.20, 631.34 354.15, 631.00 353.52 C 630.65 352.88, 630.27 352.52, 630.19 352.70 C 630.11 352.87, 630.47 353.95, 630.59 354.38 C 630.71 354.81, 630.78 354.80, 630.80 354.85 C 630.82 354.89, 630.87 354.66, 630.69 354.60 C 630.51 354.55, 630.45 354.48, 629.92 354.56 C 629.38 354.63, 629.13 354.69, 628.01 354.96 C 626.89 355.24, 626.25 355.37, 624.32 355.93 C 622.38 356.49, 621.07 356.87, 618.34 357.77 C 615.61 358.67, 614.07 359.28, 610.68 360.44 C 607.28 361.59, 605.33 362.25, 601.38 363.55 C 597.43 364.85, 595.17 365.64, 590.93 366.95 C 586.69 368.27, 584.32 369.03, 580.18 370.14 C 576.04 371.25, 573.87 371.84, 570.23 372.49 C 566.58 373.14, 564.86 373.37, 561.95 373.40 C 559.03 373.43, 557.84 373.37, 555.67 372.63 C 553.50 371.89, 552.72 371.42, 551.11 369.70 C 549.49 367.99, 548.82 366.96, 547.60 364.04 C 546.38 361.13, 545.80 359.36, 545.01 355.14 C 544.23 350.91, 543.99 348.41, 543.68 342.92 C 543.37 337.43, 543.37 334.19, 543.46 327.69 C 543.55 321.18, 543.74 317.40, 544.13 310.39 C 544.52 303.39, 544.86 299.50, 545.40 292.68 C 545.95 285.85, 546.26 282.23, 546.85 276.28 C 547.45 270.33, 547.74 267.46, 548.37 262.92 C 548.99 258.37, 549.51 256.51, 549.99 253.54 C 550.47 250.57, 550.59 249.67, 550.77 248.07 C 550.94 246.47, 551.05 246.11, 550.87 245.55 C 550.70 244.98, 550.37 244.84, 549.89 245.24" style="stroke: black; fill: black;"/><path d="M 660.41,310.58 C 659.95 311.17, 659.57 311.73, 659.16 313.70 C 658.74 315.66, 658.47 317.06, 658.33 320.41 C 658.20 323.76, 658.32 326.08, 658.49 330.46 C 658.65 334.84, 658.77 337.64, 659.15 342.31 C 659.52 346.98, 659.82 349.63, 660.36 353.81 C 660.90 357.99, 661.07 360.22, 661.86 363.22 C 662.65 366.22, 663.23 367.64, 664.30 368.82 C 665.36 370.00, 666.19 369.71, 667.19 369.12 C 668.19 368.53, 668.85 367.33, 669.29 365.87 C 669.74 364.42, 669.78 362.71, 669.44 361.85 C 669.10 360.99, 668.17 360.90, 667.60 361.57 C 667.03 362.23, 666.82 363.85, 666.57 365.18 C 666.32 366.52, 666.53 367.67, 666.33 368.23 C 666.14 368.79, 666.01 369.10, 665.60 367.98 C 665.20 366.87, 664.94 365.53, 664.31 362.63 C 663.68 359.74, 663.06 357.61, 662.43 353.52 C 661.81 349.42, 661.52 346.78, 661.20 342.16 C 660.88 337.54, 660.83 334.74, 660.84 330.42 C 660.85 326.09, 661.09 323.82, 661.25 320.54 C 661.40 317.25, 661.58 315.94, 661.62 313.98 C 661.67 312.03, 661.70 311.45, 661.46 310.77 C 661.22 310.09, 660.87 310.00, 660.41 310.58" style="stroke: black; fill: black;"/><path d="M 663.50,266.81 C 663.73 266.44, 663.56 266.17, 663.28 266.27 C 662.99 266.37, 662.45 266.78, 662.08 267.30 C 661.71 267.82, 661.29 268.50, 661.44 268.87 C 661.59 269.24, 662.21 269.52, 662.85 269.16 C 663.48 268.79, 664.38 267.73, 664.63 267.03 C 664.87 266.33, 664.48 265.77, 664.07 265.67 C 663.66 265.58, 663.06 266.12, 662.56 266.56 C 662.07 266.99, 661.67 267.54, 661.59 267.86 C 661.51 268.17, 661.77 268.33, 662.15 268.12 C 662.53 267.91, 663.28 267.18, 663.50 266.81" style="stroke: black; fill: black;"/><path d="M 748.21,312.29 C 748.01 311.57, 747.59 310.70, 746.38 309.58 C 745.16 308.46, 744.23 307.65, 742.14 306.70 C 740.06 305.75, 738.70 305.15, 735.96 304.85 C 733.23 304.55, 731.64 304.60, 728.47 305.20 C 725.29 305.80, 723.50 306.32, 720.09 307.84 C 716.69 309.37, 714.76 310.39, 711.46 312.81 C 708.16 315.23, 706.35 316.75, 703.59 319.95 C 700.83 323.15, 699.40 325.08, 697.65 328.83 C 695.91 332.58, 695.18 334.76, 694.86 338.72 C 694.54 342.69, 694.72 344.91, 696.05 348.64 C 697.38 352.38, 698.55 354.32, 701.50 357.40 C 704.45 360.48, 706.51 361.90, 710.80 364.04 C 715.09 366.19, 717.82 367.02, 722.97 368.14 C 728.12 369.25, 731.14 369.47, 736.55 369.60 C 741.95 369.74, 744.87 369.46, 750.00 368.82 C 755.13 368.18, 757.73 367.60, 762.19 366.41 C 766.66 365.22, 768.76 364.42, 772.32 362.88 C 775.87 361.33, 777.60 360.27, 779.96 358.71 C 782.32 357.14, 782.93 356.27, 784.10 355.06 C 785.28 353.84, 785.59 353.21, 785.84 352.62 C 786.08 352.03, 785.88 351.87, 785.31 352.09 C 784.74 352.31, 784.33 352.82, 782.98 353.72 C 781.63 354.62, 780.88 355.11, 778.58 356.57 C 776.28 358.04, 774.84 359.40, 771.47 361.03 C 768.10 362.67, 766.07 363.50, 761.73 364.73 C 757.39 365.97, 754.82 366.55, 749.79 367.20 C 744.77 367.86, 741.88 368.13, 736.59 367.99 C 731.29 367.85, 728.32 367.61, 723.33 366.50 C 718.33 365.39, 715.70 364.53, 711.61 362.44 C 707.52 360.36, 705.62 358.98, 702.89 356.08 C 700.15 353.19, 699.13 351.42, 697.93 347.98 C 696.73 344.54, 696.57 342.55, 696.88 338.89 C 697.19 335.24, 697.84 333.21, 699.50 329.69 C 701.15 326.18, 702.51 324.33, 705.16 321.32 C 707.81 318.30, 709.57 316.85, 712.75 314.61 C 715.93 312.36, 717.82 311.41, 721.06 310.09 C 724.29 308.76, 726.03 308.39, 728.93 307.98 C 731.83 307.56, 733.18 307.67, 735.57 308.01 C 737.95 308.35, 739.01 308.94, 740.86 309.68 C 742.70 310.43, 743.50 311.06, 744.81 311.76 C 746.12 312.45, 746.70 313.07, 747.38 313.17 C 748.06 313.28, 748.41 313.01, 748.21 312.29" style="stroke: black; fill: black;"/><path d="M 836.67,318.48 C 836.70 317.71, 836.48 316.70, 835.73 315.23 C 834.98 313.76, 834.46 312.75, 832.91 311.13 C 831.36 309.51, 830.28 308.40, 827.99 307.13 C 825.70 305.85, 824.34 305.30, 821.46 304.75 C 818.58 304.20, 816.89 304.05, 813.59 304.39 C 810.29 304.73, 808.40 305.07, 804.95 306.46 C 801.50 307.86, 799.58 308.88, 796.35 311.38 C 793.12 313.88, 791.42 315.50, 788.81 318.97 C 786.21 322.43, 784.89 324.60, 783.32 328.70 C 781.76 332.79, 781.18 335.25, 780.98 339.45 C 780.77 343.64, 781.05 345.95, 782.28 349.69 C 783.51 353.43, 784.62 355.34, 787.12 358.17 C 789.62 360.99, 791.38 362.25, 794.77 363.82 C 798.15 365.39, 800.24 365.85, 804.04 366.01 C 807.84 366.18, 810.03 365.86, 813.78 364.64 C 817.52 363.43, 819.50 362.36, 822.78 359.92 C 826.07 357.48, 827.66 355.79, 830.19 352.45 C 832.73 349.11, 833.83 347.02, 835.46 343.23 C 837.08 339.43, 837.64 337.14, 838.31 333.47 C 838.98 329.80, 839.08 327.83, 838.82 324.86 C 838.56 321.89, 838.01 320.43, 837.00 318.62 C 835.99 316.81, 835.02 316.02, 833.77 315.82 C 832.52 315.61, 831.62 316.01, 830.76 317.58 C 829.90 319.16, 829.46 320.65, 829.49 323.71 C 829.51 326.77, 830.08 328.91, 830.90 332.90 C 831.73 336.89, 832.32 339.43, 833.60 343.65 C 834.89 347.86, 835.68 350.23, 837.32 353.97 C 838.97 357.71, 839.89 359.53, 841.81 362.34 C 843.74 365.15, 844.97 366.32, 846.94 368.03 C 848.91 369.74, 850.04 370.14, 851.66 370.90 C 853.29 371.66, 853.96 371.72, 855.08 371.84 C 856.19 371.96, 856.64 371.73, 857.23 371.49 C 857.82 371.25, 857.93 370.91, 858.02 370.63 C 858.11 370.35, 857.90 370.18, 857.69 370.08 C 857.47 369.98, 857.41 370.17, 856.96 370.14 C 856.51 370.11, 856.29 370.17, 855.44 369.91 C 854.58 369.66, 854.05 369.64, 852.69 368.89 C 851.32 368.13, 850.40 367.70, 848.60 366.13 C 846.81 364.55, 845.58 363.61, 843.72 361.01 C 841.85 358.40, 840.88 356.70, 839.28 353.10 C 837.68 349.51, 836.89 347.16, 835.73 343.02 C 834.56 338.89, 834.07 336.32, 833.46 332.43 C 832.85 328.55, 832.83 326.45, 832.68 323.61 C 832.53 320.78, 832.56 319.59, 832.72 318.27 C 832.87 316.94, 833.00 316.73, 833.45 316.99 C 833.89 317.25, 834.40 317.93, 834.94 319.55 C 835.49 321.17, 835.95 322.38, 836.17 325.09 C 836.40 327.80, 836.61 329.63, 836.08 333.09 C 835.55 336.56, 835.04 338.79, 833.53 342.41 C 832.03 346.04, 830.96 348.05, 828.57 351.22 C 826.17 354.39, 824.64 355.98, 821.55 358.25 C 818.46 360.53, 816.60 361.50, 813.12 362.62 C 809.64 363.73, 807.62 364.00, 804.14 363.84 C 800.65 363.69, 798.76 363.27, 795.67 361.86 C 792.59 360.44, 790.99 359.33, 788.70 356.77 C 786.40 354.20, 785.36 352.50, 784.21 349.05 C 783.07 345.61, 782.77 343.47, 782.96 339.54 C 783.15 335.61, 783.67 333.28, 785.16 329.41 C 786.66 325.54, 787.93 323.45, 790.43 320.19 C 792.93 316.93, 794.59 315.40, 797.66 313.10 C 800.74 310.80, 802.59 309.90, 805.82 308.69 C 809.05 307.49, 810.82 307.26, 813.82 307.06 C 816.83 306.86, 818.33 307.14, 820.84 307.71 C 823.36 308.28, 824.45 308.76, 826.40 309.91 C 828.35 311.05, 829.18 312.07, 830.60 313.43 C 832.02 314.79, 832.51 315.60, 833.50 316.73 C 834.50 317.86, 834.93 318.73, 835.57 319.08 C 836.20 319.43, 836.64 319.25, 836.67 318.48" style="stroke: black; fill: black;"/><path d="M 879.46,322.84 C 879.03 323.37, 878.70 323.90, 878.37 325.64 C 878.03 327.39, 877.74 328.64, 877.80 331.55 C 877.86 334.46, 878.20 336.46, 878.67 340.19 C 879.14 343.91, 879.53 346.28, 880.14 350.17 C 880.76 354.06, 881.05 356.35, 881.75 359.64 C 882.46 362.93, 882.86 364.67, 883.65 366.62 C 884.43 368.58, 885.05 369.21, 885.69 369.41 C 886.32 369.62, 886.73 369.20, 886.81 367.65 C 886.89 366.10, 886.75 364.68, 886.10 361.65 C 885.45 358.62, 884.59 356.49, 883.56 352.52 C 882.53 348.54, 881.87 345.98, 880.97 341.78 C 880.06 337.58, 879.60 335.25, 879.06 331.52 C 878.52 327.79, 878.34 326.05, 878.28 323.13 C 878.21 320.20, 878.21 319.01, 878.72 316.89 C 879.24 314.77, 879.59 314.02, 880.85 312.53 C 882.10 311.03, 882.92 310.50, 885.02 309.40 C 887.12 308.31, 888.41 307.79, 891.33 307.06 C 894.24 306.34, 896.06 306.05, 899.59 305.79 C 903.12 305.53, 905.17 305.53, 908.99 305.76 C 912.80 305.99, 914.93 306.27, 918.67 306.95 C 922.41 307.62, 924.32 308.25, 927.68 309.14 C 931.05 310.03, 932.90 310.71, 935.50 311.38 C 938.09 312.05, 939.57 312.47, 940.67 312.50 C 941.78 312.54, 941.91 312.23, 941.01 311.55 C 940.12 310.87, 938.76 310.05, 936.22 309.10 C 933.67 308.15, 931.72 307.68, 928.28 306.81 C 924.85 305.94, 922.89 305.42, 919.06 304.75 C 915.23 304.09, 913.07 303.77, 909.14 303.48 C 905.22 303.19, 903.13 303.13, 899.44 303.30 C 895.75 303.48, 893.82 303.60, 890.67 304.34 C 887.52 305.08, 886.03 305.65, 883.69 306.99 C 881.36 308.33, 880.45 309.19, 879.01 311.05 C 877.57 312.92, 877.11 313.90, 876.48 316.33 C 875.85 318.76, 875.78 320.08, 875.86 323.19 C 875.94 326.29, 876.30 328.04, 876.88 331.84 C 877.47 335.65, 877.96 337.97, 878.78 342.22 C 879.60 346.48, 880.16 349.08, 880.99 353.12 C 881.82 357.15, 882.15 359.42, 882.92 362.40 C 883.70 365.39, 884.24 366.67, 884.88 368.02 C 885.51 369.36, 885.88 369.54, 886.10 369.13 C 886.31 368.72, 886.29 367.97, 885.94 365.96 C 885.59 363.96, 885.01 362.33, 884.34 359.09 C 883.67 355.86, 883.17 353.63, 882.59 349.79 C 882.01 345.95, 881.70 343.58, 881.42 339.91 C 881.14 336.24, 881.29 334.27, 881.18 331.45 C 881.07 328.62, 880.99 327.48, 880.86 325.79 C 880.73 324.10, 880.81 323.57, 880.53 322.98 C 880.25 322.39, 879.89 322.30, 879.46 322.84" style="stroke: black; fill: black;"/><path d="M 949.59,308.60 C 949.07 309.20, 948.59 309.89, 948.09 311.86 C 947.59 313.83, 947.26 315.22, 947.08 318.46 C 946.90 321.70, 946.99 323.88, 947.19 328.06 C 947.39 332.23, 947.65 334.86, 948.07 339.33 C 948.48 343.80, 948.74 346.33, 949.27 350.40 C 949.79 354.46, 950.04 356.55, 950.69 359.64 C 951.34 362.74, 951.81 364.01, 952.53 365.88 C 953.24 367.74, 953.65 368.17, 954.26 368.98 C 954.86 369.78, 955.20 369.78, 955.54 369.89 C 955.88 370.01, 955.97 369.85, 955.95 369.54 C 955.93 369.24, 955.70 369.23, 955.45 368.36 C 955.19 367.49, 955.14 367.04, 954.67 365.19 C 954.20 363.35, 953.75 362.15, 953.09 359.13 C 952.44 356.11, 951.97 354.10, 951.39 350.11 C 950.81 346.11, 950.55 343.57, 950.19 339.14 C 949.84 334.72, 949.65 332.10, 949.62 327.99 C 949.60 323.89, 949.87 321.78, 950.06 318.63 C 950.25 315.49, 950.46 314.21, 950.58 312.26 C 950.71 310.30, 950.87 309.59, 950.67 308.86 C 950.47 308.13, 950.11 308.00, 949.59 308.60" style="stroke: black; fill: black;"/><path d="M 952.27,266.89 C 952.61 266.58, 952.61 266.22, 952.47 266.03 C 952.32 265.84, 951.93 265.88, 951.54 265.95 C 951.16 266.01, 950.86 266.12, 950.55 266.36 C 950.24 266.60, 949.94 266.90, 949.99 267.14 C 950.03 267.38, 950.33 267.63, 950.78 267.58 C 951.24 267.53, 951.93 267.19, 952.27 266.89" style="stroke: black; fill: black;"/></g></svg>